# xmcd CD database file
#
# Track frame offsets:
#	150
#	13374
#	28830
#	45940
#	60902
#	78926
#	92353
#	104991
#	121409
#	131261
#	145277
#	157754
#
# Disc length: 2286 seconds
#
# Revision: 0
# Processed by: cddbd v1.5.1PL2 Copyright (c) Steve Scherf et al.
# Submitted via: CDex 1.51
#
DISCID=9108ec0c
DTITLE=Donnie Gene - The King of Swing
DYEAR=2004
DGENRE=Country
TTITLE0=Bring That Swing
TTITLE1=Good Morning Radio
TTITLE2=Did Somebody Say Mexico
TTITLE3=Since She Waltz Into My Heart
TTITLE4=The Fool Who Spoke Her Name
TTITLE5=Dancin' Round the Truth
TTITLE6=A Good Day for Goodbye
TTITLE7=A Love Beyond Compare
TTITLE8=Baby Lets Dance
TTITLE9=Another Sleepless Night
TTITLE10=You'll Be Smokin'
TTITLE11=Thanks for the Moment
EXTD=YEAR: 2004
EXTT0=
EXTT1=
EXTT2=
EXTT3=
EXTT4=
EXTT5=
EXTT6=
EXTT7=
EXTT8=
EXTT9=
EXTT10=
EXTT11=
PLAYORDER=
